<svg id="logo" xmlns="http://www.w3.org/2000/svg" width="329.247" height="156.842" viewBox="0 0 329.247 156.842"><g fill-rule="evenodd" clip-rule="evenodd"><path d="M188.73 67.472c1.385-.624 5.862-4.633 9.258-6.945 2.728-1.856 7.27-4.652 10.19-4.632 5.606.042 9.55 2.75 12.035 10.65.426 12.99-6.347 22.44-8.332 33.804-.93 5.31.058 11.644-4.167 13.89-2.303.144-4.25-.07-6.02-.46-1.983-1.567-1.95-5.154-3.242-7.408 1.042-8.053 3.875-15.458 6.482-23.155 1.695-4.995 6.452-16.167.464-16.208-8.562.924-16.68 15.732-23.152 25.468-1.157 4.64-2.13 10.16-3.242 15.28-1.077 4.964-2.102 10.214-6.48 12.04-2.883-1.435-6.795-3.04-7.41-6.48-.426-2.367-1.168-3.977.927-7.41 4.013-6.87 4.495-15.472 6.48-23.615 1.926-7.903 5.038-15.613 6.02-23.617 5.663-14.354 10.63-30.19 16.206-44.917 1.82-4.808 3.22-10.038 6.946-13.43 3.372-1.123 6.21.812 7.408 3.24-.2 5.454-3.116 10.275-5.09 15.282-5.954 15.077-11.05 31.477-15.28 48.62zM275.32 13.757c5.057 5.264-3.286 8.875-6.02 12.04-7.017 2.092-9.495 8.718-17.598 9.725-5.536-4.39 4.82-10.8 9.263-13.893 5.352-3.726 9.49-7.443 14.354-7.873zM321.626 88.773c-2.088 2.234-3.787 4.857-8.8 4.168-6.156-2.562-2.312-17.962 0-24.54.547-1.544 1.866-2.76 2.318-4.17.554-1.725.48-3.41.927-5.092 1.03-3.87 6.306-16.51-.463-17.597-2.656-.426-4 2.393-6.02 4.168-2.544 2.24-7.723 8.825-9.26 12.503-1.093 2.61-1.07 5.534-1.854 8.337-1.88 6.724-5.254 14.82-8.336 21.3-.874 4.22-1.47 8.716-5.09 10.19-3.486-.533-6.144-1.89-7.41-4.632 4.5-18.82 15.338-33.73 13.89-56.958 4.523-3.96 11.193-.477 11.577 5.094 2.996-.244 3.317-3.166 5.096-4.63 3.467-1.123 4.538-3.78 7.872-4.168 7.364-.857 12.062 4.925 12.963 9.724.39 2.062.155 4.77 0 6.948-1 14.158-9.633 26.034-7.41 39.36zM36.38 115.63c-.4-1.805-.82-4.31 0-6.02 3.198-2.493 6.906-2.89 10.185-4.63 12.945-6.874 19.528-21.627 19.45-41.677-2.443-8.67-9.882-12.344-18.523-14.817-5.407-.575-6.855-.413-15.745 2.315-2.766.97-4.12 1.83-6.018 3.242-3.89 2.888-8.495 11.482-13.895 8.8-6.425-3.197 2.313-14.828 5.558-17.597 5.74-4.9 17.25-8.628 24.08-9.26 9.95-.926 19.393 3.94 25.467 8.333C73.41 49 80.314 60.438 78.517 72.102 75.722 90.25 67.257 104.77 54.9 113.78c-4.936 2.065-13.154 6.15-18.52 1.85zM257.26 45.246c3.397-.62 7.083.02 10.188.46 2.897 2.2 5.717 4.474 6.945 8.337-.17 8.895-2.702 17.545-5.556 24.54-2.274 5.584-4.837 11.53-8.334 16.21-3.403 4.55-10.288 10.61-16.672 11.114-16.516 1.3-17.13-16.174-13.89-30.1 1.715-7.36 6.606-14.97 11.576-20.837 3.84-4.535 8.725-8.406 15.745-9.724zm-1.39 8.797c-3.112 4.032-7.34 8.97-10.186 14.817-3.976 8.176-8.23 19.52-4.168 28.248 8.09-.983 11.702-6.255 14.818-12.503 3.43-6.872 5.493-14.143 6.944-21.763.697-3.646 2.404-8.652-1.387-11.115h-.926c-1.676.794-3.522 1.016-5.093 2.316zM110.933 46.634c3.51 5.947-.414 14.08-5.094 16.208-2.7.228-4.806-.134-6.483-.927-3.294-8.652 2.242-19.332 11.576-15.28z"/><path d="M44.715 58.674c.833 6.8-3.89 12.706-6.482 19.45-6.01 15.623-9.085 36.066-13.894 53.25-1.904 6.807-2.63 10.748-6.02 16.21-2.26 3.64-6.342 9.317-11.577 9.258-5.762-.06-8.482-4.696-5.56-9.724-.115.204 2.247-1.796 3.706-3.703 6.382-8.328 8.647-20.907 11.575-32.88 2.246-9.176 3.953-17.083 6.022-24.076 3.3-11.192 6.334-25.518 15.28-30.102 2.335-1.193 5.452-.412 6.948 2.316zM153.072 88.31c-2.19.184-3.866-.147-5.558-.464-6.203-4.35 3.802-15.164-3.704-18.058-6.43 1.24-9.02 7.098-12.5 12.965-2.834 4.77-5.724 9.08-6.485 15.747-.625 5.486-.742 13.732 1.854 16.204 9.54 4.684 10.098-8.85 17.593-11.113 2.763.325 4.198 1.98 5.56 3.705-1.568 12.06-10.146 18.918-21.768 19.45-9.794-2.843-15.94-10.86-16.667-20.373-.595-7.767 2.42-19.543 7.41-27.787 2-3.305 5.248-6.766 7.87-9.724 3.992-4.502 8.238-9.797 14.355-10.185 14.25-.91 22.817 19.038 12.04 29.634zM103.525 76.27c-1.534 9.963-5.582 19.24-8.336 28.71-2.83 9.738-4.033 19.755-8.337 28.71-3.595 1.566-7.073-.02-8.8-2.778 1.162-10.752 4.667-20.542 7.873-30.1 1.602-4.77 3.056-9.665 4.632-14.353 1.537-4.576 2.558-9.537 6.02-12.968.965.196 1.226-.317 1.852-.464 2.227.555 3.84 1.717 5.095 3.243z"/></g></svg>