<?xml version="1.0" standalone="no"?>
<!DOCTYPE svg PUBLIC "-//W3C//DTD SVG 1.1//EN" "http://www.w3.org/Graphics/SVG/1.1/DTD/svg11.dtd" >
<svg xmlns="http://www.w3.org/2000/svg">
<metadata></metadata>
<defs>
<font id="ume_ui_gothic_o5medium" horiz-adv-x="1024" vert-adv-y="2048" >
<font-face units-per-em="2048" ascent="1760" descent="-288" />
<missing-glyph horiz-adv-x="624" />
<glyph horiz-adv-x="0" vert-adv-y="0" />
<glyph horiz-adv-x="682" />
<glyph unicode=" "  horiz-adv-x="624" />
<glyph unicode="&#x09;" horiz-adv-x="624" />
<glyph unicode="&#xa0;" horiz-adv-x="624" />
<glyph unicode="!" horiz-adv-x="448" d="M120 1560h208l-40 -1080h-136zM144 -8v280h160v-280h-160z" />
<glyph unicode="&#x22;" d="M128 856v160q112 0 112 240h-112v304h248v-304q0 -384 -248 -400zM504 856v160q112 0 112 240h-112v304h248v-304q0 -384 -248 -400z" />
<glyph unicode="#" d="M16 456v128h176l74 448h-186v128h206l66 400h160l-66 -400h248l66 400h160l-66 -400h154v-128h-174l-74 -448h176v-128h-196l-76 -464h-160l76 464h-248l-76 -464h-160l76 464h-156zM352 584h248l74 448h-248z" />
<glyph unicode="$" d="M72 184v216q136 -152 244 -200q61 -27 116 -39v555q-66 16 -144 48q-88 36 -152 132t-64 240q0 184 92 304q77 100 268 116v212h160v-212q82 -10 156 -40q108 -44 196 -140v-240q-128 152 -212 212q-58 41 -140 54v-573q88 -18 176 -69q96 -56 140 -144t44 -208 q0 -208 -104 -312q-85 -84 -256 -100v-292h-160v294q-71 11 -152 42q-128 48 -208 144zM240 1136q0 -136 60 -196q52 -52 132 -71v535q-102 -14 -140 -64q-52 -68 -52 -204zM592 157q84 12 132 51q68 56 68 200q0 136 -80 200q-66 52 -120 72v-523z" />
<glyph unicode="%" d="M8 1128q0 240 60 360t188 120q136 0 188 -132t52 -348q0 -166 -26 -272l306 776h168l-344 -874q56 66 152 66q128 0 188 -124t60 -348q0 -256 -64 -360t-184 -104q-136 0 -188 120t-52 344q0 130 16 224l-264 -672h-168l330 839q-60 -95 -170 -95q-144 0 -196 128 t-52 352zM176 1128q0 -336 80 -336t80 336q0 328 -80 328q-80 8 -80 -328zM680 352q0 -312 72 -312q88 0 88 312q0 320 -88 320q-72 0 -72 -320z" />
<glyph unicode="&#x26;" horiz-adv-x="1216" d="M56 384q0 120 68 220t184 168q14 8 29 18q-138 259 -145 426q8 176 108 264t244 80q152 0 240 -88t88 -232t-88 -268t-188 -196q-28 -20 -60 -42q90 -142 262 -346q48 74 74 156q48 152 64 368h168q-16 -272 -92 -468q-40 -104 -99 -190q108 -122 239 -262h-232 q-60 69 -116 135q-4 -4 -8 -7q-140 -128 -340 -128q-176 0 -288 100t-112 292zM216 384q0 -128 72 -180t176 -52q114 0 230 110q-166 208 -276 387q-28 -20 -58 -41q-136 -96 -144 -224zM352 1216q6 -150 106 -345q52 39 110 85q144 116 144 284q0 88 -44 132t-124 44 q-96 0 -144 -52t-48 -148z" />
<glyph unicode="'" horiz-adv-x="416" d="M88 856v160q112 0 112 240h-112v304h256v-304q0 -384 -256 -400z" />
<glyph unicode="(" horiz-adv-x="624" d="M96 736q0 576 344 992l112 -72q-288 -408 -288 -920q0 -536 288 -928l-112 -72q-344 408 -344 1000z" />
<glyph unicode=")" horiz-adv-x="624" d="M72 -192q296 392 296 928q0 512 -296 920l112 72q360 -424 360 -992q0 -592 -360 -1000z" />
<glyph unicode="*" d="M72 512l304 264l-304 272l120 176l248 -280l-24 616h192l-24 -616l256 280l112 -176l-296 -272l304 -264l-120 -184l-256 296l24 -632h-192l24 632l-248 -296z" />
<glyph unicode="+" d="M48 672v152h384v656h160v-656h376v-152h-376v-680h-160v680h-384z" />
<glyph unicode="," horiz-adv-x="416" d="M80 104v304h264v-296q0 -400 -264 -408v160q120 0 120 240h-120z" />
<glyph unicode="-" d="M144 536v128h728v-128h-728z" />
<glyph unicode="." horiz-adv-x="416" d="M96 -8v416h232v-416h-232z" />
<glyph unicode="/" d="M104 -144l656 1816l160 -48l-664 -1824z" />
<glyph unicode="0" d="M104 784q0 408 112 592t248 184h96q136 0 248 -184t112 -592q0 -392 -108 -592t-252 -200h-96q-144 0 -252 196t-108 596zM264 792q0 -320 72 -480t176 -160t180 164t68 468q0 288 -72 456t-176 168t-176 -168t-72 -448zM424 784q0 104 20 160t68 56t68 -56t20 -160 t-20 -160t-68 -56t-68 56t-20 160z" />
<glyph unicode="1" d="M192 -8v144h240v1064h-240v144h88q120 0 176 216h136v-1424h240v-144h-640z" />
<glyph unicode="2" d="M136 -8v144q56 248 264 444t268 324t60 272q0 224 -224 224q-104 0 -156 -76t-52 -188h-160q0 184 92 304t220 120h112q136 0 232 -108t96 -276q0 -208 -80 -364t-276 -340t-212 -328h568v-152h-752z" />
<glyph unicode="3" d="M136 72v176q88 -56 164 -80t140 -24q152 0 220 88t68 264q0 160 -80 252t-208 92q-48 0 -96 -16v136l344 456h-552v144h752v-136l-336 -440q72 -16 152 -72t132 -160t52 -256q0 -240 -116 -372t-332 -132q-88 0 -168 24t-136 56z" />
<glyph unicode="4" d="M72 336v128l528 1096h152v-1080h208v-144h-208v-344h-152v344h-528zM248 480h352v744z" />
<glyph unicode="5" d="M136 32v160q136 -48 264 -48q152 0 236 112t84 272q0 200 -96 292t-240 92q-120 0 -248 -40v688h752v-144h-592v-368q48 8 88 8q232 0 368 -136t136 -392q0 -224 -124 -380t-364 -156q-152 0 -264 40z" />
<glyph unicode="6" d="M136 496q0 320 104 568t264 496h200q-232 -328 -328 -576q48 32 120 32h56q144 0 240 -136t96 -384q0 -232 -96 -368t-240 -136h-72q-144 0 -244 140t-100 364zM304 496q0 -160 56 -252t160 -92q88 0 148 92t60 252t-60 256t-148 96t-152 -96t-64 -256z" />
<glyph unicode="7" d="M136 1416v144h752v-136q-264 -736 -416 -1432h-168q152 720 416 1424h-584z" />
<glyph unicode="8" d="M136 400q0 232 192 384q-176 144 -176 376q0 176 96 288t224 112h88q120 0 212 -112t92 -288q0 -240 -168 -376q192 -160 192 -376q0 -176 -104 -296t-224 -120h-96q-112 0 -220 112t-108 296zM304 400q8 -104 60 -172t148 -68q104 0 156 64t52 184q-8 184 -208 304 q-200 -120 -208 -312zM320 1160q8 -208 192 -304q184 104 184 304q0 128 -48 188t-136 60t-140 -64t-52 -184z" />
<glyph unicode="9" d="M136 1056q0 240 100 372t236 132h72q152 0 248 -140t96 -364q0 -320 -100 -568t-268 -496h-200q240 328 336 576q-56 -32 -120 -32h-64q-144 0 -240 136t-96 384zM296 1056q0 -160 60 -256t148 -96t152 96t64 256t-56 252t-160 92q-88 0 -148 -92t-60 -252z" />
<glyph unicode=":" horiz-adv-x="416" d="M88 168v360h240v-360h-240zM88 896v352h240v-352h-240z" />
<glyph unicode=";" horiz-adv-x="416" d="M88 80v344h240v-336q0 -376 -240 -384v160q112 0 112 216h-112zM88 896v352h240v-352h-240z" />
<glyph unicode="&#x3c;" d="M88 680v136l736 512l112 -128l-648 -448l648 -464l-112 -136z" />
<glyph unicode="=" d="M64 376v128h896v-128h-896zM64 760v128h896v-128h-896z" />
<glyph unicode="&#x3e;" d="M80 280l648 448l-648 464l112 136l736 -528v-136l-736 -512z" />
<glyph unicode="?" horiz-adv-x="928" d="M96 1288v184q112 56 184 72t184 16q368 0 368 -392q0 -248 -184 -408q-128 -128 -120 -224v-56h-160v56q-8 160 136 320q152 136 152 312q0 232 -192 232q-96 0 -168 -16t-200 -96zM352 -8v280h200v-280h-200z" />
<glyph unicode="@" horiz-adv-x="1368" d="M40 744q0 368 176 592t496 224q256 0 432 -180t176 -516q0 -416 -192 -584h-328v64q-72 -56 -160 -56q-152 0 -232 128t-80 360q0 224 80 368t232 144q96 0 160 -64v64h160v-864h104q96 168 96 440q0 280 -124 412t-324 132q-248 0 -380 -180t-132 -484q0 -320 116 -456 t388 -144q240 0 472 56v-160q-216 -48 -472 -48q-320 0 -492 184t-172 568zM496 776q0 -176 36 -256t108 -80q88 0 152 72v552q-64 64 -152 64q-64 0 -100 -84t-44 -268z" />
<glyph unicode="A" horiz-adv-x="1296" d="M72 -8l480 1568h200l472 -1568h-184l-154 536h-482l-156 -536h-176zM449 680h394l-195 680z" />
<glyph unicode="B" horiz-adv-x="1304" d="M152 -8v1568h608q152 0 272 -104t120 -280q0 -224 -176 -328q248 -144 248 -440q0 -200 -116 -308t-292 -108h-664zM312 152h504q104 0 176 60t72 196q0 184 -96 268t-208 84h-448v-608zM312 912h448q96 0 160 64t64 200q0 120 -64 176t-160 56h-448v-496z" />
<glyph unicode="C" horiz-adv-x="1360" d="M112 800q0 344 152 552t384 208h104q176 0 340 -140t164 -388h-160q-24 200 -136 288t-264 88q-200 0 -312 -168t-112 -440q0 -304 116 -476t308 -172q160 0 268 104t132 328h160q0 -248 -152 -420t-408 -172q-288 0 -436 216t-148 592z" />
<glyph unicode="D" horiz-adv-x="1328" d="M152 -8v1568h360q328 0 512 -212t192 -564q0 -360 -188 -576t-516 -216h-360zM320 152h192q264 0 404 172t140 460q0 296 -140 460t-404 164h-192v-1256z" />
<glyph unicode="E" horiz-adv-x="1160" d="M152 -8v1568h856v-160h-696v-488h616v-152h-616v-600h696v-168h-856z" />
<glyph unicode="F" horiz-adv-x="1128" d="M152 -8v1568h856v-160h-696v-488h544v-152h-544v-768h-160z" />
<glyph unicode="G" horiz-adv-x="1392" d="M112 760q0 376 172 588t380 212h96q176 0 328 -124t152 -316h-168q-32 144 -128 216t-240 72q-184 0 -308 -188q-116 -177 -116 -427v-33q0 -320 112 -456t320 -144q192 0 368 104v424h-304v152h464v-848h-160v88q-168 -88 -368 -88q-264 0 -432 192t-168 576z" />
<glyph unicode="H" horiz-adv-x="1312" d="M152 -8v1568h160v-648h680v648h168v-1568h-168v768h-680v-768h-160z" />
<glyph unicode="I" horiz-adv-x="504" d="M32 -8v152h136v1272h-136v144h432v-144h-136v-1272h136v-152h-432z" />
<glyph unicode="J" horiz-adv-x="1112" d="M112 40v176q152 -56 288 -56q384 0 392 352v1048h168v-1048q0 -520 -560 -520q-144 0 -288 48z" />
<glyph unicode="K" horiz-adv-x="1224" d="M152 -8v1568h160v-644l624 644h216l-578 -588l578 -980h-216l-475 866l-149 -152v-714h-160z" />
<glyph unicode="L" horiz-adv-x="1104" d="M152 -8v1568h160v-1416h640v-152h-800z" />
<glyph unicode="M" horiz-adv-x="1520" d="M152 -8v1568h256l336 -936l368 936h248v-1568h-160v1344l-360 -920h-192l-328 920v-1344h-168z" />
<glyph unicode="N" horiz-adv-x="1312" d="M152 -8v1568h216l624 -1352v1352h160v-1568h-240l-600 1328v-1328h-160z" />
<glyph unicode="O" horiz-adv-x="1448" d="M112 768q0 360 172 576t388 216h112q200 0 372 -212t172 -580t-168 -572t-440 -204q-288 0 -448 220t-160 556zM280 768q0 -312 120 -460t328 -156q192 0 312 144t120 472q0 312 -124 476t-308 164q-192 0 -320 -164t-128 -476z" />
<glyph unicode="P" horiz-adv-x="1264" d="M152 -8v1568h480q248 0 384 -96t136 -296q0 -192 -136 -300t-384 -108h-312v-768h-168zM320 912h312q192 0 276 64t84 192q0 120 -84 180t-276 60h-312v-496z" />
<glyph unicode="Q" horiz-adv-x="1448" d="M112 768q0 360 172 576t388 216h112q200 0 372 -212t172 -580t-168 -572q-102 -124 -242 -172q14 -28 34 -56q72 -104 216 -104q96 0 136 8t152 40v-168q-96 -32 -148 -36t-140 -4q-184 0 -296 112q-73 73 -114 177q-18 -1 -38 -1q-288 0 -448 220t-160 556zM280 768v-37 q0 -284 116 -423q120 -144 320 -156q-28 168 -28 368h168q0 -208 12 -328q1 -8 2 -17q98 34 170 121q120 144 128 472q0 312 -124 476t-316 164t-320 -164t-128 -476z" />
<glyph unicode="R" horiz-adv-x="1280" d="M152 -8v1568h480q248 0 384 -96t136 -296q0 -192 -136 -300q-102 -80 -264 -101l448 -775h-208l-418 768h-254v-768h-168zM320 912h312q192 0 276 64t84 192q0 120 -84 180t-276 60h-312v-496z" />
<glyph unicode="S" horiz-adv-x="1232" d="M88 448h160q8 -144 72 -204t144 -80t160 -20q104 0 176 20t120 80t48 148t-48 152t-108 108t-132 68l-112 40q-96 32 -192 76t-164 132t-68 200q0 128 56 220t160 132t216 40h80q104 0 208 -56t168 -152t72 -264h-160q-16 104 -48 172t-108 112t-172 44q-120 0 -184 -32 t-96 -88t-32 -128q0 -80 56 -128t112 -76t128 -52l112 -40q104 -40 200 -100t156 -160t60 -220q0 -128 -68 -228t-168 -136t-268 -36q-112 0 -240 36t-204 132t-92 288z" />
<glyph unicode="T" horiz-adv-x="1208" d="M72 1408v152h1056v-152h-448v-1416h-160v1416h-448z" />
<glyph unicode="U" horiz-adv-x="1312" d="M152 496v1064h160v-1064q0 -168 84 -256t268 -88q176 0 256 88t80 248v1072h160v-1072q0 -232 -132 -364t-364 -132q-256 0 -384 136t-128 368z" />
<glyph unicode="V" horiz-adv-x="1296" d="M72 1560h176l400 -1384l408 1384h176l-464 -1568h-232z" />
<glyph unicode="W" horiz-adv-x="1520" d="M72 1560h184l168 -1360l224 1360h232l200 -1368l184 1368h184l-240 -1568h-248l-192 1328l-216 -1328h-264z" />
<glyph unicode="X" horiz-adv-x="1232" d="M64 -8l450 788l-442 780h200l344 -602l344 602h200l-442 -780l450 -788h-208l-344 608l-344 -608h-208z" />
<glyph unicode="Y" horiz-adv-x="1208" d="M64 1560h208l328 -728l344 728h200l-456 -920v-648h-168v648z" />
<glyph unicode="Z" horiz-adv-x="1160" d="M152 -8v152l672 1264h-672v152h856v-144l-672 -1264h672v-160h-856z" />
<glyph unicode="[" horiz-adv-x="688" d="M96 -200v1872h504v-144h-352v-1584h336v-144h-488z" />
<glyph unicode="\" horiz-adv-x="1032" d="M96 1616l160 64l672 -1824l-152 -64z" />
<glyph unicode="]" horiz-adv-x="688" d="M112 -48h280v1584h-280v136h440v-1872h-440v152z" />
<glyph unicode="^" horiz-adv-x="848" d="M96 1200v208l328 304l336 -320v-208l-336 320z" />
<glyph unicode="_" horiz-adv-x="624" d="M-8 -136h640v-160h-640v160z" />
<glyph unicode="`" horiz-adv-x="848" d="M216 1608h224l160 -352h-176z" />
<glyph unicode="a" horiz-adv-x="976" d="M112 336q0 392 552 432v88q0 96 -52 136t-140 40t-132 -48t-60 -152h-168q8 144 96 248t248 104h88q96 0 192 -76t96 -252v-864h-168v96q-112 -96 -248 -96q-304 0 -304 344zM272 336q0 -184 168 -184q96 0 224 112v344q-384 -40 -392 -272z" />
<glyph unicode="b" horiz-adv-x="1016" d="M152 -8v1640h168v-536q104 88 184 88h96q104 0 200 -112t96 -440v-88q0 -552 -360 -552q-120 0 -216 64v-64h-168zM320 232q96 -80 216 -80q208 0 208 400v80q0 392 -192 392q-112 0 -232 -96v-696z" />
<glyph unicode="c" d="M112 584q0 296 124 448t260 152h88q128 0 236 -116t108 -300h-168q-16 152 -76 204t-148 52q-112 0 -188 -112t-76 -320q0 -232 76 -332t188 -100q88 0 148 72t68 184h176q-8 -176 -112 -300t-280 -124q-200 0 -312 156t-112 436z" />
<glyph unicode="d" horiz-adv-x="1016" d="M112 544v80q0 304 88 432t232 128h72q104 0 208 -72v520h152v-1640h-152v56q-80 -56 -208 -56q-392 0 -392 552zM272 544q0 -392 232 -392q112 0 208 80v704q-112 88 -216 88q-128 0 -176 -108t-48 -292v-80z" />
<glyph unicode="e" d="M112 528v136q0 264 108 392t244 128h96q128 0 240 -128t112 -392v-144h-640q8 -160 76 -260t204 -108q72 0 112 28t64 76h176q-32 -136 -132 -200t-220 -64q-200 0 -320 152t-120 384zM272 672h472q1 21 1 41q0 160 -57 235q-64 84 -176 84q-104 0 -172 -92t-68 -268z " />
<glyph unicode="f" horiz-adv-x="624" d="M16 1032v152h136v232q0 112 56 164t176 52h176v-152h-176q-48 0 -60 -12t-12 -52v-232h248v-152h-248v-1040h-160v1040h-136z" />
<glyph unicode="g" horiz-adv-x="944" d="M112 536v120q0 288 76 408t188 120h88q80 0 168 -64v64h160v-1000q0 -256 -100 -368t-260 -112q-152 0 -296 32v192q152 -48 268 -48t172 60t56 156q-96 -64 -192 -64q-328 0 -328 504zM272 536q0 -344 168 -344q96 0 192 72v688q-96 72 -192 72q-168 0 -168 -368v-120z " />
<glyph unicode="h" d="M152 -8v1640h160v-568q24 32 100 76t148 44h72q104 0 172 -72t68 -184v-936h-168v912q0 72 -28 96t-108 24q-64 0 -120 -32t-136 -112v-888h-160z" />
<glyph unicode="i" horiz-adv-x="432" d="M136 -8v1192h168v-1192h-168zM136 1352v280h168v-280h-168z" />
<glyph unicode="j" horiz-adv-x="448" d="M-8 -128h72q80 0 80 88v1224h160v-1224q0 -256 -192 -256h-120v168zM144 1352v280h160v-280h-160z" />
<glyph unicode="k" horiz-adv-x="944" d="M152 -8v1640h160v-921l376 473h200l-365 -442l365 -750h-200l-276 617l-100 -121v-496h-160z" />
<glyph unicode="l" horiz-adv-x="432" d="M136 184v1448h168v-1448q0 -32 24 -32h72v-160h-72q-192 0 -192 192z" />
<glyph unicode="m" horiz-adv-x="1504" d="M152 -8v1192h160v-64q64 64 184 64h72q64 0 120 -28t88 -76q104 104 248 104h88q80 0 160 -68t80 -220v-904h-168v904q0 80 -36 108t-124 28q-120 0 -200 -80v-960h-160v904q0 80 -48 108t-120 28q-120 0 -184 -80v-960h-160z" />
<glyph unicode="n" d="M152 -8v1192h160v-120q16 32 52 60t76 44t112 16h88q88 0 160 -68t72 -188v-936h-160v904q0 88 -40 112t-112 24q-88 0 -144 -44t-104 -108v-888h-160z" />
<glyph unicode="o" horiz-adv-x="1040" d="M112 568v48q0 256 104 412t256 156h104q136 0 244 -152t108 -416v-48q0 -248 -108 -412t-300 -164q-200 0 -304 168t-104 408zM272 568q0 -176 72 -292t176 -116t172 108t68 300v48q0 184 -68 296t-172 112q-112 0 -180 -104t-68 -304v-48z" />
<glyph unicode="p" horiz-adv-x="1016" d="M152 -296v1480h160v-80q104 80 176 80h80q128 0 232 -128t104 -440v-64q0 -560 -376 -560q-128 0 -216 56v-344h-160zM312 232q96 -80 216 -80q216 8 216 400v64q0 232 -64 320t-152 88q-120 0 -216 -96v-696z" />
<glyph unicode="q" horiz-adv-x="1016" d="M112 504v120q0 304 88 432t224 128h96q80 0 184 -56v56h160v-1480h-160v344q-112 -56 -232 -56h-11q-349 0 -349 512zM272 504q0 -352 200 -352q120 0 232 72v728q-104 72 -240 72q-7 1 -13 1q-64 0 -119 -73q-60 -80 -60 -328v-120z" />
<glyph unicode="r" horiz-adv-x="712" d="M152 -8v1192h160v-104q40 48 112 76t136 28h120v-152h-120q-48 0 -116 -24t-132 -96v-920h-160z" />
<glyph unicode="s" horiz-adv-x="944" d="M96 368h160q8 -112 68 -164t148 -52q112 0 152 40t40 120q0 48 -16 80t-52 64t-108 72l-56 24q-80 32 -144 64t-112 100t-48 164q0 128 96 216t216 88h64q56 0 140 -48t124 -124t48 -196h-160q-8 104 -56 160t-128 56q-104 0 -144 -44t-40 -108q0 -72 56 -116t120 -68 l56 -24q112 -48 168 -92t96 -112t40 -156q0 -152 -92 -236t-260 -84q-152 0 -256 92t-120 284z" />
<glyph unicode="t" horiz-adv-x="720" d="M32 1032v152h120v376h160v-376h296v-152h-296v-824q0 -56 48 -56h248v-160h-248q-208 0 -208 216v824h-120z" />
<glyph unicode="u" d="M152 264v920h168v-912q0 -120 128 -120q144 0 256 136v896h168v-1192h-168v96q-104 -96 -264 -96q-128 0 -208 64t-80 208z" />
<glyph unicode="v" horiz-adv-x="976" d="M72 1184h192l232 -960l208 960h184l-280 -1192h-224z" />
<glyph unicode="w" horiz-adv-x="1328" d="M72 1184h176l152 -976l160 976h232l136 -976l160 976h176l-208 -1192h-248l-136 976l-144 -976h-248z" />
<glyph unicode="x" horiz-adv-x="944" d="M64 -8l306 600l-298 592h192l204 -400l204 400h192l-298 -592l306 -600h-200l-204 406l-204 -406h-200z" />
<glyph unicode="y" horiz-adv-x="976" d="M72 1184h176l250 -677l230 677h176l-504 -1480h-176l190 558z" />
<glyph unicode="z" horiz-adv-x="936" d="M72 -8v152l592 888h-592v152h784v-144l-576 -888h576v-160h-784z" />
<glyph unicode="{" horiz-adv-x="480" d="M24 696v96q128 16 104 184v408q0 296 320 296v-120q-160 0 -160 -176v-408q0 -176 -112 -232q112 -64 112 -232v-448q0 -176 160 -176v-112q-320 0 -320 288v448q16 160 -104 184z" />
<glyph unicode="|" horiz-adv-x="480" d="M160 -184v1856h160v-1856h-160z" />
<glyph unicode="}" horiz-adv-x="480" d="M32 -104q160 0 160 176v408q0 176 120 232q-120 64 -120 232v448q0 176 -160 176v112q328 0 328 -288v-448q-24 -160 96 -184v-96q-120 -16 -96 -184v-408q0 -296 -328 -296v120z" />
<glyph unicode="~" horiz-adv-x="848" d="M72 1408q120 248 344 112q128 -112 224 40l104 -120q-120 -224 -360 -96q-128 96 -208 -40z" />
<glyph unicode="&#xa0;" d="M72 1408q120 248 344 112q128 -112 224 40l104 -120q-120 -224 -360 -96q-128 96 -208 -40z" />
<glyph unicode="&#xa1;" horiz-adv-x="448" d="M128 -160l24 1264h144l24 -1264h-192zM144 1352v280h168v-280h-168z" />
<glyph unicode="&#xa2;" d="M96 816q0 256 120 400t288 144q48 0 80 -8l32 152l88 -16l-40 -152q120 -40 184 -136t80 -248h-176q-16 96 -48 152t-72 72l-176 -736q32 -8 64 -8q88 0 152 52t80 148h168q-16 -152 -128 -256t-272 -104q-56 0 -96 8l-56 -248l-88 16l64 264q-104 40 -176 172t-72 332z M256 808q0 -128 32 -204t88 -116l176 704h-48q-104 0 -176 -88t-72 -296z" />
<glyph unicode="&#xa3;" horiz-adv-x="1368" d="M64 216q0 144 84 192t188 48q128 0 272 -96q8 16 8 48q0 192 -96 360h-320v136h256q-48 104 -48 232q0 192 96 308t280 116q176 0 280 -96t104 -224h-216q0 64 -36 112t-132 48q-88 0 -132 -76t-44 -188t64 -232h400v-136h-320q88 -192 88 -352q0 -88 -48 -184 q88 -64 152 -64q80 0 128 52t48 276l184 -48q0 -280 -96 -368t-248 -88q-120 0 -272 96q-96 -96 -328 -96q-112 0 -204 56t-92 168zM248 216q0 -72 112 -80q120 0 184 80q-104 80 -208 80q-88 0 -88 -80z" />
<glyph unicode="&#xa4;" horiz-adv-x="1048" d="M112 64l136 264q-64 160 -72 408q0 216 72 408l-136 256l80 152l136 -264q80 120 200 120q128 0 208 -128l136 264l80 -136l-136 -272q64 -176 56 -400q0 -224 -64 -400l144 -280l-72 -136l-144 272q-80 -120 -208 -120q-112 0 -208 112l-128 -264zM288 736 q0 -248 72 -364t168 -116q120 0 180 152t60 328q0 216 -68 344t-172 128q-112 0 -176 -136t-64 -336z" />
<glyph unicode="&#xa5;" horiz-adv-x="1208" d="M88 1560h216l304 -568l304 568h208l-368 -688h336v-144h-384v-272h384v-144h-384v-320h-192v320h-392v144h392v272h-392v144h344z" />
<glyph unicode="&#xa6;" horiz-adv-x="464" d="M184 -160v1792h96v-1792h-96z" />
<glyph unicode="&#xa7;" horiz-adv-x="2048" d="M320 240h232q32 -248 480 -248q456 0 456 176q0 80 -164 140t-428 124q-336 80 -456 152t-120 208q0 128 280 240q-208 96 -208 256q0 168 160 256t480 88q648 0 688 -400h-216q-8 240 -472 240q-408 0 -408 -184q0 -96 156 -152t340 -96q312 -88 456 -164t144 -204 q0 -152 -248 -240q240 -88 240 -264q0 -152 -196 -240t-484 -88q-656 0 -712 400zM544 792q0 -104 456 -216l256 -64q232 64 232 168t-400 208l-272 72q-272 -80 -272 -168z" />
<glyph unicode="&#xa8;" d="M136 1304v256h264v-256h-264zM632 1304v256h264v-256h-264z" />
<glyph unicode="&#xa9;" horiz-adv-x="1368" d="M112 736q0 288 176 464t392 176q248 0 408 -176t160 -464q0 -264 -160 -452t-408 -188t-408 188t-160 452zM216 736q8 -240 136 -384t328 -144t336 148t136 380t-136 380t-336 148t-332 -152t-132 -376zM376 728q0 128 92 232t212 104q104 0 180 -64t100 -200h-120 q-16 80 -52 116t-108 36t-128 -56t-56 -168t52 -172t132 -60q72 0 112 40t56 128h120q-8 -120 -88 -196t-200 -76t-212 100t-92 236z" />
<glyph unicode="&#xaa;" horiz-adv-x="728" d="M208 1200q0 120 76 172t164 60v32q0 32 -20 60t-52 28t-52 -24t-20 -72h-80q0 80 32 128t88 48h56q64 0 100 -56t36 -144v-256l16 -128h-88l-8 48q-8 -16 -36 -32t-76 -16q-64 0 -100 44t-36 108zM296 1208q0 -40 12 -56t36 -16q40 0 60 16t44 64v128q-72 -8 -112 -40 t-40 -96z" />
<glyph unicode="&#xab;" horiz-adv-x="1368" d="M96 736l760 664l88 -72l-672 -592l664 -592l-80 -80zM416 736l768 664l88 -72l-672 -592l664 -592l-80 -80z" />
<glyph unicode="&#xac;" horiz-adv-x="1312" d="M104 888v144h1056v-520h-168v376h-888z" />
<glyph unicode="&#xad;" horiz-adv-x="1032" d="M56 664v152h912v-152h-912z" />
<glyph unicode="&#xae;" horiz-adv-x="1368" d="M112 736q0 288 176 464t392 176q248 0 408 -176t160 -464q0 -264 -160 -452t-408 -188t-408 188t-160 452zM216 736q8 -240 136 -384t328 -144t336 148t136 380t-136 380t-336 148t-332 -152t-132 -376zM472 368v744h256q96 0 152 -60t56 -132t-36 -128t-124 -64 l200 -360h-120l-184 360h-112v-360h-88zM560 808h168q48 0 76 24t28 88q0 56 -28 80t-76 24h-168v-216z" />
<glyph unicode="&#xaf;" horiz-adv-x="1368" d="M-8 1616v152h1384v-152h-1384z" />
<glyph unicode="&#xb0;" horiz-adv-x="2048" d="M104 1304q0 160 96 260t256 100q136 0 244 -100t108 -260q0 -168 -104 -264t-248 -96t-248 96t-104 264zM264 1304q0 -96 52 -144t140 -48q80 0 132 48t52 144q0 80 -48 140t-136 60q-96 0 -144 -52t-48 -148z" />
<glyph unicode="&#xb1;" horiz-adv-x="2048" d="M312 0h1424v-160h-1424v160zM312 856v176h632v600h160v-600h632v-176h-632v-608h-160v608h-632z" />
<glyph unicode="&#xb2;" horiz-adv-x="488" d="M24 1024v96l120 224q56 96 56 184q0 64 -16 80t-48 16q-24 0 -40 -16t-16 -96h-56q0 96 32 152t80 56q56 0 88 -52t32 -140q0 -104 -48 -208l-104 -200h152v-96h-232z" />
<glyph unicode="&#xb3;" horiz-adv-x="488" d="M24 1024v88h96q64 0 64 128q0 144 -64 144h-64v64l104 184h-136v88h232v-80l-96 -176q96 0 96 -224q0 -216 -136 -216h-96z" />
<glyph unicode="&#xb4;" d="M328 1296l160 264h272l-256 -264h-176z" />
<glyph unicode="&#xb5;" horiz-adv-x="1032" d="M144 -296v1264h208v-696q64 -120 136 -120q96 0 192 136v680h200v-976h-200v88q-88 -88 -192 -88t-136 64v-352h-208z" />
<glyph unicode="&#xb6;" d="M32 1296q0 144 48 240t136 96h280v-144h-24v-1648h-96v1648h-80v-1648h-96v1112q-72 -8 -120 92t-48 252z" />
<glyph unicode="&#xb7;" horiz-adv-x="416" d="M152 632v264h112v-264h-112z" />
<glyph unicode="&#xb8;" horiz-adv-x="416" d="M120 144q0 64 20 124t60 60t60 -56t20 -128q8 -192 -28 -304t-124 -136l-8 104q40 8 56 36t24 72t0 44q-40 0 -60 52t-20 132z" />
<glyph unicode="&#xb9;" horiz-adv-x="488" d="M24 1512v112q64 0 80 96h64v-696h-88v488h-56z" />
<glyph unicode="&#xba;" horiz-adv-x="488" d="M24 1376q0 128 32 236t96 108t96 -100t32 -244q0 -152 -32 -252t-96 -100t-96 104t-32 248zM88 1376q0 -120 20 -176t44 -56t44 56t20 176t-20 172t-44 52t-44 -52t-20 -172z" />
<glyph unicode="&#xbb;" horiz-adv-x="1368" d="M112 144l664 592l-656 592l80 80l760 -672l-760 -664zM432 144l672 592l-672 592l96 80l744 -672l-744 -664z" />
<glyph unicode="&#xbc;" horiz-adv-x="1048" d="M64 1400v88q112 0 128 72h88v-752h-112v592h-104zM160 24l640 1536l80 -16l-640 -1544zM464 160v48l312 536h104v-480h120v-104h-120v-168h-120v168h-296zM600 264h160v264z" />
<glyph unicode="&#xbd;" horiz-adv-x="1048" d="M64 1408v80q112 8 128 72h88v-752h-112v600h-104zM160 24l640 1536l80 -16l-640 -1544zM528 512q0 104 68 168t156 64q96 0 164 -60t68 -156q0 -104 -104 -224l-216 -208h320v-104h-448v104l240 248q96 96 96 184q0 64 -32 88t-88 24q-48 0 -80 -24t-32 -104h-112z" />
<glyph unicode="&#xbe;" horiz-adv-x="1048" d="M64 808v96h168q128 0 128 144q0 152 -128 152h-112v72l200 192h-256v96h432v-88l-200 -192q200 0 200 -232q0 -240 -264 -240h-168zM160 24l640 1536l80 -16l-640 -1544zM496 160v112l296 472h120v-480h128v-104h-128v-168h-112v168h-304zM624 264h176v280z" />
<glyph unicode="&#xbf;" horiz-adv-x="928" d="M48 280q0 168 72 260t160 156q88 72 100 148t12 148v128h168v-128q0 -80 -16 -172t-120 -204q-104 -80 -160 -144t-56 -184q0 -96 56 -160t184 -64q136 0 196 76t60 196v96h152v-96q0 -184 -116 -304t-292 -120q-176 -8 -288 104t-112 264zM368 1352v240h208v-240h-208z " />
<glyph unicode="&#xc0;" horiz-adv-x="1296" d="M232 -8l312 1192h168l312 -1192h-152l-96 336h-304l-88 -336h-152zM408 1768h240l192 -416h-144zM512 488h232l-120 432z" />
<glyph unicode="&#xc1;" horiz-adv-x="1296" d="M232 -8l312 1192h168l312 -1192h-152l-96 336h-304l-88 -336h-152zM416 1352l192 416h240l-280 -416h-152zM512 488h232l-120 432z" />
<glyph unicode="&#xc2;" horiz-adv-x="1296" d="M264 -8l312 1192h168l312 -1192h-152l-96 336h-304l-88 -336h-152zM400 1416l216 352h80l216 -352l-88 -96l-168 272l-168 -272zM544 488h232l-112 432z" />
<glyph unicode="&#xc3;" horiz-adv-x="1296" d="M224 -8l312 1192h168l312 -1192h-152l-96 336h-304l-88 -336h-152zM264 1376v224q128 168 200 168q80 0 128 -80l96 -120q40 -56 96 -56q48 0 192 192v-224q-112 -160 -192 -160q-72 0 -136 72l-96 120q-40 56 -88 56q-56 0 -200 -192zM504 488h232l-120 432z" />
<glyph unicode="&#xc4;" horiz-adv-x="1296" d="M240 -8l312 1192h176l312 -1192h-160l-88 336h-304l-88 -336h-160zM312 1352v416h216v-416h-216zM520 488h240l-120 432zM728 1352v416h224v-416h-224z" />
<glyph unicode="&#xc5;" horiz-adv-x="1296" d="M224 -8l312 1192h168l312 -1192h-152l-96 336h-304l-88 -336h-152zM408 1552q0 80 64 152q64 64 152 64q80 0 152 -64q64 -72 64 -152q0 -88 -64 -152q-72 -64 -152 -64q-88 0 -152 64t-64 152zM496 1552q0 -64 32 -100t96 -36q56 0 88 48q40 24 40 88q0 56 -36 92 t-92 36q-64 0 -88 -40q-40 -32 -40 -88zM504 488h232l-120 432z" />
<glyph unicode="&#xc6;" horiz-adv-x="1368" d="M112 -8l552 1192h592v-152h-464v-336h376v-160h-376v-392h464v-152h-584v344h-248l-152 -344h-160zM496 488h176v408z" />
<glyph unicode="&#xc7;" horiz-adv-x="1360" d="M32 592q0 232 184 412t496 188q320 -8 456 -112t160 -312h-248q-40 136 -120 200t-248 64q-184 0 -304 -108t-120 -332q0 -208 120 -332t280 -124t264 64t128 224h248q-8 -216 -168 -316t-360 -116h48q120 -16 144 -56t24 -80q0 -88 -96 -120t-200 -32q-96 -8 -184 24 t-128 72l160 64q112 -56 152 -56q56 0 76 4t28 44t-48 56q-136 24 -176 80q-224 24 -396 200t-172 400z" />
<glyph unicode="&#xc8;" horiz-adv-x="1160" d="M96 -8v1192h976v-152h-768v-336h640v-160h-640v-392h768v-152h-976zM272 1776h336l272 -424h-192z" />
<glyph unicode="&#xc9;" horiz-adv-x="1160" d="M88 -8v1192h976v-160h-768v-336h640v-152h-640v-392h768v-152h-976zM272 1352l280 424h328l-408 -424h-200z" />
<glyph unicode="&#xca;" horiz-adv-x="1160" d="M96 -8v1192h976v-152h-768v-336h640v-160h-640v-392h768v-152h-976zM208 1384l328 392h88l320 -392l-120 -104l-240 296l-248 -296z" />
<glyph unicode="&#xcb;" horiz-adv-x="1160" d="M96 -8v1192h976v-152h-768v-336h640v-160h-640v-392h768v-152h-976zM184 1352v416h288v-416h-288zM688 1352v416h288v-416h-288z" />
<glyph unicode="&#xcc;" horiz-adv-x="688" d="M160 1776h208l152 -424h-120zM280 -8v1192h136v-1192h-136z" />
<glyph unicode="&#xcd;" horiz-adv-x="592" d="M144 1408l136 368h176l-208 -368h-104zM240 -8v1192h120v-1192h-120z" />
<glyph unicode="&#xce;" horiz-adv-x="888" d="M160 1480l248 288h72l248 -288l-96 -80l-184 216l-192 -216zM368 -8v1192h160v-1192h-160z" />
<glyph unicode="&#xcf;" horiz-adv-x="688" d="M72 1520v256h176v-256h-176zM280 -8v1192h136v-1192h-136zM408 1520v256h176v-256h-176z" />
<glyph unicode="&#xd0;" horiz-adv-x="1328" d="M168 728v152h200v680h288q288 0 400 -216t112 -568t-112 -568t-400 -216h-288v736h-200zM504 160h152q192 0 272 168t80 444t-80 456t-272 180h-152v-528h232v-152h-232v-568z" />
<glyph unicode="&#xd1;" horiz-adv-x="1312" d="M104 -8v1192h304l568 -872v872h240v-1192h-296l-576 896v-896h-240zM120 1472v176q184 120 296 120t192 -56l144 -96q56 -40 144 -40q96 0 296 144v-176q-184 -120 -296 -120q-104 0 -192 56l-144 96q-56 40 -144 40t-296 -144z" />
<glyph unicode="&#xd2;" horiz-adv-x="1368" d="M144 584q0 232 128 416t344 184h120q200 0 340 -184t140 -416q0 -248 -152 -424t-388 -176t-384 176t-148 424zM328 584q0 -232 108 -340t240 -108t244 108t112 340q0 224 -108 340t-220 116h-56q-104 0 -212 -124t-108 -332zM368 1768h320l272 -344h-192z" />
<glyph unicode="&#xd3;" horiz-adv-x="1368" d="M144 584q0 232 128 416t344 184h120q200 0 340 -184t140 -416q0 -248 -152 -424t-388 -176t-384 176t-148 424zM328 584q0 -232 108 -340t240 -108t244 108t112 340q0 224 -108 340t-220 116h-56q-104 0 -212 -124t-108 -332zM456 1400l216 368h272l-328 -368h-160z" />
<glyph unicode="&#xd4;" horiz-adv-x="1368" d="M144 584q0 232 128 416t344 184h120q200 0 340 -184t140 -416q0 -248 -152 -424t-388 -176t-384 176t-148 424zM328 584q0 -232 108 -340t240 -108t244 108t112 340q0 224 -108 340t-220 116h-56q-104 0 -212 -124t-108 -332zM384 1480l256 288h72l256 -288l-96 -80 l-192 224l-192 -224z" />
<glyph unicode="&#xd5;" horiz-adv-x="1368" d="M144 584q0 232 128 416t344 184h120q200 0 340 -184t140 -416q0 -248 -152 -424t-388 -176t-384 176t-148 424zM304 1472v176q128 128 208 128q72 0 136 -56l96 -96q40 -40 104 -40t200 152v-184q-120 -128 -200 -128t-144 56l-96 96q-40 40 -96 40q-64 0 -208 -144z M328 584q0 -232 108 -340t240 -108t244 108t112 340q0 224 -108 340t-220 116h-56q-104 0 -212 -124t-108 -332z" />
<glyph unicode="&#xd6;" horiz-adv-x="1368" d="M144 584q0 232 120 416t352 184h120q232 0 356 -184t124 -416q0 -248 -136 -420t-352 -172h-104q-208 0 -344 172t-136 420zM328 584q0 -232 96 -332t224 -100h56q112 0 220 100t108 332q0 224 -92 332t-236 108h-56q-144 0 -232 -116t-88 -324zM344 1352v416h232v-416 h-232zM784 1352v416h232v-416h-232z" />
<glyph unicode="&#xd7;" horiz-adv-x="2048" d="M376 248l536 536l-528 528l112 112l528 -528l528 528l112 -112l-528 -528l544 -536l-112 -120l-544 544l-536 -544z" />
<glyph unicode="&#xd8;" horiz-adv-x="1368" d="M272 -80l144 304q-120 232 -120 560q0 304 120 540t320 236q144 0 240 -112l120 248l104 -64l-144 -304q128 -240 128 -544q0 -328 -124 -560t-324 -232q-136 0 -240 112l-120 -256zM480 784q0 -224 32 -344l384 840q-72 96 -160 96q-96 0 -176 -152t-80 -440zM576 280 q72 -120 160 -120q104 0 188 160t84 464q0 216 -40 344z" />
<glyph unicode="&#xd9;" horiz-adv-x="1312" d="M120 520v664h240v-664q0 -200 76 -276t220 -76t224 76t80 276v664h240v-664q0 -304 -160 -420t-392 -116t-380 120t-148 416zM360 1776h368l320 -368h-224z" />
<glyph unicode="&#xda;" horiz-adv-x="1312" d="M120 520v664h240v-664q0 -200 76 -276t220 -76t224 76t80 276v664h240v-664q0 -304 -160 -420t-392 -116t-380 120t-148 416zM296 1408l312 368h376l-472 -368h-216z" />
<glyph unicode="&#xdb;" horiz-adv-x="1312" d="M120 520v664h240v-664q0 -200 76 -276t220 -76t224 76t80 276v664h240v-664q0 -304 -160 -420t-392 -116t-380 120t-148 416zM232 1480l376 288h104l368 -288l-144 -80l-280 224l-272 -224z" />
<glyph unicode="&#xdc;" horiz-adv-x="1312" d="M120 520v664h240v-664q0 -200 76 -276t220 -76t224 76t80 276v664h240v-664q0 -304 -160 -420t-392 -116t-380 120t-148 416zM144 1520v256h328v-256h-328zM784 1520v256h320v-256h-320z" />
<glyph unicode="&#xdd;" horiz-adv-x="1208" d="M96 1184h232l280 -464l280 464h232l-400 -632v-560h-224v560zM304 1400l296 368h344l-432 -368h-208z" />
<glyph unicode="&#xde;" horiz-adv-x="1112" d="M144 -8v1640h200v-432h264q400 0 408 -384t-408 -392h-264v-432h-200zM344 568h264q224 0 232 248q0 224 -232 232h-264v-480z" />
<glyph unicode="&#xdf;" horiz-adv-x="1112" d="M80 -8v1096q0 264 120 368t248 104h96q152 0 268 -120t116 -288q0 -144 -76 -232t-116 -96q104 -16 200 -132t96 -268q0 -440 -416 -432h-240v160h208q256 0 256 264q0 160 -128 248t-280 88v144q144 0 220 68t76 188q0 136 -64 192t-184 56q-88 0 -144 -72t-56 -240 v-1096h-200z" />
<glyph unicode="&#xe0;" horiz-adv-x="976" d="M88 304q0 344 432 344h152v48q0 72 -40 104t-112 32h-136q-136 0 -216 -56l-72 96q136 96 280 96h176q104 0 196 -60t92 -212v-488l40 -216h-160l-24 80q-120 -80 -312 -80q-296 0 -296 312zM232 1632h280l232 -368h-168zM272 296q0 -176 152 -176q128 0 248 96v296h-152 q-240 0 -248 -216z" />
<glyph unicode="&#xe1;" horiz-adv-x="976" d="M88 304q0 344 432 344h152v48q0 72 -40 104t-112 32h-136q-136 0 -216 -56l-72 96q136 96 280 96h176q104 0 196 -60t92 -212v-488l40 -216h-160l-24 80q-120 -80 -312 -80q-296 0 -296 312zM232 1264l232 368h280l-344 -368h-168zM272 296q0 -176 152 -176q128 0 248 96 v296h-152q-240 0 -248 -216z" />
<glyph unicode="&#xe2;" horiz-adv-x="976" d="M88 304q0 344 432 344h152v48q0 72 -40 104t-112 32h-136q-136 0 -216 -56l-72 96q136 96 280 96h176q104 0 196 -60t92 -212v-488l40 -216h-160l-24 80q-120 -80 -312 -80q-296 0 -296 312zM168 1336l280 296h80l280 -296l-112 -72l-208 224l-200 -224zM272 296 q0 -176 152 -176q128 0 248 96v296h-152q-240 0 -248 -216z" />
<glyph unicode="&#xe3;" horiz-adv-x="976" d="M88 304q0 344 432 344h152v48q0 72 -40 104t-112 32h-136q-136 0 -216 -56l-72 96q136 96 280 96h176q104 0 196 -60t92 -212v-488l40 -216h-160l-24 80q-120 -80 -312 -80q-296 0 -296 312zM88 1256v168q136 128 224 128q80 0 144 -56l104 -96q48 -40 112 -40t216 144 v-168q-136 -128 -216 -128t-152 56l-104 96q-40 40 -104 40q-72 0 -224 -144zM272 296q0 -176 152 -176q128 0 248 96v296h-152q-240 0 -248 -216z" />
<glyph unicode="&#xe4;" horiz-adv-x="976" d="M88 304q0 344 432 344h152v48q0 72 -40 104t-112 32h-136q-136 0 -216 -56l-72 96q136 96 280 96h176q104 0 196 -60t92 -212v-488l40 -216h-160l-24 80q-120 -80 -312 -80q-296 0 -296 312zM112 1168v392h240v-392h-240zM272 296q0 -176 152 -176q128 0 248 96v296h-152 q-240 0 -248 -216zM584 1168v392h240v-392h-240z" />
<glyph unicode="&#xe5;" horiz-adv-x="976" d="M88 304q0 344 432 344h152v48q0 72 -40 104t-112 32h-136q-136 0 -216 -56l-72 96q136 96 280 96h176q104 0 196 -60t92 -212v-488l40 -216h-160l-24 80q-120 -80 -312 -80q-296 0 -296 312zM248 1400q0 96 72 176q72 72 168 72t176 -72q64 -80 64 -176q0 -104 -64 -184 q-80 -72 -176 -72t-168 72q-72 80 -72 184zM272 296q0 -176 152 -176q128 0 248 96v296h-152q-240 0 -248 -216zM344 1392q0 -64 40 -108t104 -44t104 48q40 40 40 104q0 72 -40 116t-104 44t-104 -48q-40 -40 -40 -112z" />
<glyph unicode="&#xe6;" horiz-adv-x="1368" d="M88 240q0 216 128 296t344 104q0 184 -152 200q-128 0 -144 -152h-160q24 176 100 228t156 52h104q136 0 192 -128q64 128 216 128h80q112 0 216 -132t104 -364h-560q0 -152 68 -240t156 -88q72 0 112 44t64 124h152q-64 -328 -328 -328q-200 0 -280 144 q-160 -136 -336 -144q-120 0 -176 72t-56 184zM240 240q0 -88 80 -88q144 0 240 104v240q-160 -32 -240 -84t-80 -172zM720 616h376q-32 192 -184 200q-160 -8 -192 -200z" />
<glyph unicode="&#xe7;" d="M80 496q0 216 112 344t280 128h104q144 0 252 -116t116 -268h-168q-16 112 -80 172t-176 60q-128 0 -204 -84t-76 -236q0 -192 76 -268t204 -76q120 0 180 56t76 168h168q-16 -176 -104 -272t-232 -112q16 -16 64 -24q64 -24 92 -52t28 -60q0 -72 -68 -112t-180 -40 q-96 0 -160 20t-136 100l80 80q64 -56 108 -72t108 -16q48 0 80 8t32 32q0 16 -72 40q-104 24 -128 96q-168 16 -272 148t-104 356z" />
<glyph unicode="&#xe8;" d="M112 448v96q0 224 108 324t252 100h96q136 0 240 -100t104 -228v-120h-608q-8 -72 0 -144q16 -144 76 -196t140 -52t136 28t112 116l136 -88q-48 -88 -132 -140t-204 -52h-88q-160 0 -264 112t-104 344zM240 1632h296l248 -368h-176zM312 648h416q-8 80 -52 132t-156 52 t-156 -56t-52 -128z" />
<glyph unicode="&#xe9;" d="M112 448v96q0 224 108 324t252 100h96q136 0 240 -100t104 -228v-120h-608q-8 -72 0 -144q16 -144 76 -196t140 -52t136 28t112 116l136 -88q-48 -88 -132 -140t-204 -52h-88q-160 0 -264 112t-104 344zM240 1264l248 368h296l-368 -368h-176zM312 648h416q-8 80 -52 132 t-156 52t-156 -56t-52 -128z" />
<glyph unicode="&#xea;" d="M112 448v96q0 224 108 324t252 100h96q136 0 240 -100t104 -228v-120h-608q-8 -72 0 -144q16 -144 76 -196t140 -52t136 28t112 116l136 -88q-48 -88 -132 -140t-204 -52h-88q-160 0 -264 112t-104 344zM176 1336l296 296h80l296 -296l-120 -72l-216 224l-216 -224z M312 648h416q-8 80 -52 132t-156 52t-156 -56t-52 -128z" />
<glyph unicode="&#xeb;" d="M112 448v96q0 224 108 324t252 100h96q136 0 240 -100t104 -228v-120h-608q-8 -72 0 -144q16 -144 76 -196t140 -52t136 28t112 116l136 -88q-48 -88 -132 -140t-204 -52h-88q-160 0 -264 112t-104 344zM112 1264v256h256v-256h-256zM312 648h416q-8 80 -52 132t-156 52 t-156 -56t-52 -128zM608 1264v256h256v-256h-256z" />
<glyph unicode="&#xec;" horiz-adv-x="600" d="M136 1632h184l136 -368h-112zM240 -8v976h120v-976h-120z" />
<glyph unicode="&#xed;" horiz-adv-x="600" d="M144 1264l136 368h184l-208 -368h-112zM240 -8v976h120v-976h-120z" />
<glyph unicode="&#xee;" horiz-adv-x="888" d="M160 1344l248 288h72l248 -288l-96 -80l-184 216l-192 -216zM360 -8v976h168v-976h-168z" />
<glyph unicode="&#xef;" horiz-adv-x="736" d="M80 1264v256h192v-256h-192zM296 -8v976h144v-976h-144zM440 1264v256h184v-256h-184z" />
<glyph unicode="&#xf0;" horiz-adv-x="1048" d="M72 472q0 248 124 356t300 108q72 0 152 -28t104 -60q-8 176 -64 280l-472 -160l-48 144l424 136q-72 72 -200 144l88 128q160 -72 288 -208l216 72l48 -144l-176 -64q96 -176 96 -568q0 -312 -124 -464t-324 -152q-208 -8 -320 144t-112 336zM240 472q0 -160 76 -236 t172 -76q144 0 200 76t56 236t-72 232t-184 72q-120 0 -184 -100t-64 -204z" />
<glyph unicode="&#xf1;" d="M96 1256v168q144 128 232 128q80 0 152 -56l112 -96q40 -40 112 -40t224 144v-168q-136 -128 -224 -128t-160 56l-112 96q-40 40 -104 40q-72 0 -232 -144zM152 -8v976h184v-120q24 48 76 84t140 36h96q104 0 164 -68t60 -188v-720h-184v696q0 72 -24 96t-104 24 q-64 0 -108 -32t-116 -112v-672h-184z" />
<glyph unicode="&#xf2;" horiz-adv-x="1040" d="M72 480v24q0 208 104 336t280 128h120q200 0 300 -132t100 -332v-24q0 -224 -104 -356t-296 -132h-120q-192 0 -288 124t-96 364zM248 1632h296l248 -368h-176zM264 480q0 -192 52 -264t140 -72h120q88 0 148 84t60 252v24q0 160 -56 236t-152 76h-120q-80 0 -136 -72 t-56 -240v-24z" />
<glyph unicode="&#xf3;" horiz-adv-x="1040" d="M72 480v24q0 208 104 336t280 128h120q200 0 300 -132t100 -332v-24q0 -224 -104 -356t-296 -132h-120q-192 0 -288 124t-96 364zM248 1264l248 368h296l-368 -368h-176zM264 480q0 -192 52 -264t140 -72h120q88 0 148 84t60 252v24q0 160 -56 236t-152 76h-120 q-80 0 -136 -72t-56 -240v-24z" />
<glyph unicode="&#xf4;" horiz-adv-x="1040" d="M72 480v24q0 208 104 336t280 128h120q200 0 300 -132t100 -332v-24q0 -224 -104 -356t-296 -132h-120q-192 0 -288 124t-96 364zM184 1336l296 296h80l296 -296l-112 -72l-224 224l-216 -224zM264 480q0 -192 52 -264t140 -72h120q88 0 148 84t60 252v24q0 160 -56 236 t-152 76h-120q-80 0 -136 -72t-56 -240v-24z" />
<glyph unicode="&#xf5;" horiz-adv-x="1040" d="M72 480v24q0 208 104 336t280 128h120q200 0 300 -132t100 -332v-24q0 -224 -104 -356t-296 -132h-120q-192 0 -288 124t-96 364zM96 1256v168q144 128 232 128t160 -56l112 -96q40 -40 112 -40t232 144v-168q-144 -128 -232 -128t-160 56l-112 96q-40 40 -112 40 t-232 -144zM264 480q0 -192 52 -264t140 -72h120q88 0 148 84t60 252v24q0 160 -56 236t-152 76h-120q-80 0 -136 -72t-56 -240v-24z" />
<glyph unicode="&#xf6;" horiz-adv-x="1040" d="M72 480v24q0 208 104 336t280 128h120q200 0 300 -132t100 -332v-24q0 -224 -104 -356t-296 -132h-120q-192 0 -288 124t-96 364zM112 1264v256h264v-256h-264zM264 480q0 -192 52 -264t140 -72h120q88 0 148 84t60 252v24q0 160 -56 236t-152 76h-120q-80 0 -136 -72 t-56 -240v-24zM616 1264v256h264v-256h-264z" />
<glyph unicode="&#xf7;" horiz-adv-x="2048" d="M304 704v144h1416v-144h-1416zM896 344q0 128 128 128t128 -128t-128 -128t-128 128zM896 1216q0 128 128 128q120 0 120 -128t-120 -128q-128 0 -128 128z" />
<glyph unicode="&#xf8;" horiz-adv-x="1040" d="M48 472q0 184 132 340t340 156q112 0 200 -40l120 208l96 -64l-128 -208q192 -152 192 -400q0 -200 -136 -336t-344 -136q-136 0 -216 56l-128 -184l-88 64l128 184q-168 152 -168 360zM248 464q0 -136 48 -200l336 520q-48 24 -112 24q-104 0 -188 -84t-84 -260z M368 168q72 -48 152 -48q104 0 188 84t84 268q0 168 -80 248z" />
<glyph unicode="&#xf9;" d="M144 264v704h200v-696q0 -120 120 -120q112 0 208 136v680h200v-976h-200v88q-88 -88 -272 -88q-120 0 -188 72t-68 200zM240 1632h296l248 -368h-176z" />
<glyph unicode="&#xfa;" d="M144 264v704h200v-696q0 -120 120 -120q112 0 208 136v680h200v-976h-200v88q-88 -88 -272 -88q-120 0 -188 72t-68 200zM240 1264l248 368h296l-368 -368h-176z" />
<glyph unicode="&#xfb;" d="M144 264v704h200v-696q0 -120 120 -120q112 0 208 136v680h200v-976h-200v88q-88 -88 -272 -88q-120 0 -188 72t-68 200zM176 1344l296 288h80l296 -288l-120 -80l-216 224l-216 -224z" />
<glyph unicode="&#xfc;" d="M112 1264v256h256v-256h-256zM144 264v704h200v-696q0 -120 120 -120q112 0 208 136v680h200v-976h-200v88q-88 -88 -272 -88q-120 0 -188 72t-68 200zM608 1264v256h256v-256h-256z" />
<glyph unicode="&#xfd;" horiz-adv-x="976" d="M88 968h192l192 -640l224 640h200l-464 -1264h-200l136 376zM232 1264l232 368h280l-344 -368h-168z" />
<glyph unicode="&#xfe;" horiz-adv-x="1016" d="M128 -240v1608h168v-392q136 96 272 96q168 0 276 -132t108 -364q0 -248 -116 -368t-276 -120q-144 0 -264 80v-408h-168zM296 352q112 -88 264 -88q200 0 200 312t-200 320q-168 0 -264 -128v-416z" />
<glyph unicode="&#xff;" horiz-adv-x="976" d="M88 968h192l192 -640l224 640h200l-464 -1264h-200l136 376zM112 1264v256h240v-256h-240zM584 1264v256h240v-256h-240z" />
<glyph unicode="&#x152;" horiz-adv-x="1368" d="M120 768q-8 792 272 792h64q176 0 232 -288v288h568v-160h-416v-488h344v-152h-344v-600h408v-168h-560v272q-56 -272 -232 -272h-64q-280 0 -272 776zM248 768q0 -600 144 -608h64q152 0 152 608q0 632 -144 632h-72q-144 0 -144 -632z" />
<glyph unicode="&#x153;" horiz-adv-x="1368" d="M112 472v40q0 208 72 332t208 124h88q152 0 216 -112l8 24q88 88 200 88h72q112 0 196 -96t84 -224v-120h-480v-160q8 -144 56 -196t112 -52t104 28t88 124l104 -96q-32 -88 -100 -136t-164 -48h-64q-120 0 -208 104l-8 16q-72 -120 -216 -120h-88q-144 0 -212 120 t-68 360zM256 472q0 -192 36 -272t100 -80h88q56 0 104 88q32 72 40 184v200q-8 104 -40 168q-40 80 -104 80h-88q-56 0 -96 -80t-40 -248v-40zM784 656h320q-8 80 -48 128t-112 56q-88 0 -124 -56t-36 -128z" />
<glyph unicode="&#x178;" horiz-adv-x="1208" d="M224 1184h168l208 -520l208 520h176l-312 -696v-496h-144v496zM304 1352v416h200v-416h-200zM696 1352v416h200v-416h-200z" />
<glyph unicode="&#x2c6;" horiz-adv-x="936" d="M184 1416l240 352h80l232 -352l-88 -96l-184 272l-184 -272z" />
<glyph unicode="&#x2dc;" horiz-adv-x="1016" d="M96 1440v168q144 128 224 128q88 0 152 -56l112 -96q48 -40 112 -40q72 0 224 144v-168q-136 -128 -224 -128q-80 0 -152 56l-112 96q-40 40 -112 40q-64 0 -224 -144z" />
<glyph unicode="&#x2000;" horiz-adv-x="888" vert-adv-y="0" />
<glyph unicode="&#x2001;" horiz-adv-x="1776" vert-adv-y="0" />
<glyph unicode="&#x2002;" horiz-adv-x="888" vert-adv-y="0" />
<glyph unicode="&#x2003;" horiz-adv-x="1776" vert-adv-y="0" />
<glyph unicode="&#x2004;" horiz-adv-x="592" vert-adv-y="0" />
<glyph unicode="&#x2005;" horiz-adv-x="444" vert-adv-y="0" />
<glyph unicode="&#x2006;" horiz-adv-x="296" vert-adv-y="0" />
<glyph unicode="&#x2007;" horiz-adv-x="296" vert-adv-y="0" />
<glyph unicode="&#x2008;" horiz-adv-x="222" vert-adv-y="0" />
<glyph unicode="&#x2009;" horiz-adv-x="355" vert-adv-y="0" />
<glyph unicode="&#x200a;" horiz-adv-x="98" vert-adv-y="0" />
<glyph unicode="&#x2010;" d="M144 536v128h728v-128h-728z" />
<glyph unicode="&#x2011;" d="M144 536v128h728v-128h-728z" />
<glyph unicode="&#x2012;" d="M144 536v128h728v-128h-728z" />
<glyph unicode="&#x2013;" horiz-adv-x="1032" d="M72 704v144h888v-144h-888z" />
<glyph unicode="&#x2014;" horiz-adv-x="1368" d="M-8 704v144h1384v-144h-1384z" />
<glyph unicode="&#x2018;" d="M536 1168v264l192 336h128l-160 -328h144v-272h-304z" />
<glyph unicode="&#x2019;" d="M176 1168l128 272h-128v328h304v-320l-176 -280h-128z" />
<glyph unicode="&#x201a;" horiz-adv-x="416" d="M40 -24v328h136v-320l-72 -280h-56l48 272h-56z" />
<glyph unicode="&#x201c;" d="M144 1168v288l168 312h112l-120 -304h136v-296h-296zM568 1168v288l168 312h112l-120 -304h136v-296h-296z" />
<glyph unicode="&#x201d;" d="M168 1168l120 304h-120v296h296v-280l-184 -320h-112zM592 1168l120 304h-120v296h296v-280l-184 -320h-112z" />
<glyph unicode="&#x201e;" horiz-adv-x="712" d="M104 8v296h208v-280l-128 -320h-80l88 304h-88zM400 8v296h208v-280l-128 -320h-80l80 304h-80z" />
<glyph unicode="&#x2022;" horiz-adv-x="416" d="M136 696v272h128v-272h-128z" />
<glyph unicode="&#x2026;" horiz-adv-x="2048" d="M216 576v288h288v-288h-288zM864 576v288h288v-288h-288zM1520 576v288h288v-288h-288z" />
<glyph unicode="&#x202f;" horiz-adv-x="355" vert-adv-y="0" />
<glyph unicode="&#x2039;" d="M88 752l736 752l112 -128l-616 -624l616 -632l-112 -144z" />
<glyph unicode="&#x203a;" d="M88 112l616 624l-616 632l112 144l736 -776l-736 -752z" />
<glyph unicode="&#x205f;" horiz-adv-x="444" vert-adv-y="0" />
<glyph unicode="&#x2122;" horiz-adv-x="1144" d="M40 1424v136h496v-136h-184v-472h-144v472h-168zM544 952v608h160l96 -248l104 248h168v-608h-136v352l-72 -200h-112l-80 184v-336h-128z" />
<glyph unicode="&#x25fc;" horiz-adv-x="1185" vert-adv-y="2370" d="M0 0v1185h1185v-1185h-1185z" />
<glyph unicode="&#xfb01;" horiz-adv-x="888" d="M16 1032v152h112v256q0 136 60 232t204 96h96v-176h-104q-48 0 -76 -36t-28 -116v-256h456v-1192h-152v1040h-304v-1040h-152v1040h-112z" />
<glyph unicode="&#xfb02;" horiz-adv-x="944" d="M16 1032v152h120v256q0 136 64 232t216 96q112 0 216 -72v72h160v-1776h-160v1528q-112 72 -224 72q-56 0 -84 -36t-28 -116v-256h224v-152h-224v-1040h-160v1040h-120z" />
</font>
</defs>
</svg>
